<svg xmlns="http://www.w3.org/2000/svg" height="20px" viewBox="0 -960 960 960" width="20px" fill="#fff">
  <path d="M319-250h222q17 0 28.5-11.5T581-290q0-17-11.5-28.5T541-330H319q-17 0-28.5 11.5T279-290q0 17 11.5 28.5T319-250Zm0-160h322q17 0 28.5-11.5T681-450q0-17-11.5-28.5T641-490H319q-17 0-28.5 11.5T279-450q0 17 11.5 28.5T319-410Zm0-160h322q17 0 28.5-11.5T681-610q0-17-11.5-28.5T641-650H319q-17 0-28.5 11.5T279-610q0 17 11.5 28.5T319-570ZM160-120q-33 0-56.5-23.5T80-200v-560q0-33 23.5-56.5T160-840h640q33 0 56.5 23.5T880-760v560q0 33-23.5 56.5T800-120H160Z"/>
</svg>
